<?xml version="1.0" encoding="UTF-8" standalone="no"?>
<svg width="48px" height="49px" viewBox="0 0 48 49" version="1.1" xmlns="http://www.w3.org/2000/svg" xmlns:xlink="http://www.w3.org/1999/xlink">
    <!-- Generator: Sketch 3.7.2 (28276) - http://www.bohemiancoding.com/sketch -->
    <title>Contacts icon</title>
    <desc>Created with Sketch.</desc>
    <defs>
        <path d="M44.5613459,41.0551542 C42.0463423,39.844517 36.4435189,38.4355269 33.0343351,36.2007879 C31.5002027,35.4355036 30.9577645,34.5247047 30.9577637,33.6271738 C30.9577645,32.1230667 30.8183661,30.547347 31.8411211,29.6290059 C33.0343351,28.4045511 34.079785,25.0373009 34.2502441,25.0373009 C36.0297852,23.7587899 35.9596329,23.1118172 36.4435196,21.3767098 C36.9274063,19.6416024 35.859326,17.9513782 36.0297852,17.6452645 C37.0549316,13.6796873 37.126709,12.3584155 36.4435196,8.29834668 C35.7603302,4.23827789 31.3038904,1.58729398 26.9438357,1.15896531 C22.583781,0.730636631 20.2498984,0.994940275 17.3520927,2.37245191 C13.9429102,4.02795486 12.7496963,6.39200879 12.0678596,8.9939752 C11.5564822,11.4428848 11.8974001,13.5580369 12.4087776,16.0069464 C12.5792367,16.466117 12.5792367,16.9252875 12.7496959,17.2314012 C12.920155,17.9966855 12.0678591,19.0300953 12.0678596,20.0445565 C12.0678602,21.1159544 12.2533441,22.3665718 12.9351807,23.2849129 C13.4740049,24.0106358 14.4542874,24.7311868 14.4542874,25.0373005 C14.9656649,27.0270395 16.04483,28.5133585 17.352093,30.3942901 C17.7424316,30.9559218 17.5084386,32.6554443 17.3520927,34.0592881 C17.177473,35.6272145 15.303271,35.9614295 12.5792367,37.2721858 C9.85520241,38.5829421 5.93607955,40.2903945 4.32963301,41.0551547 C2.72318646,41.819915 0,44.7059101 0,48.9712571 L48,48.9712571 C48,45.40707 47.0763494,42.2657913 44.5613459,41.0551542 Z" id="path-1"></path>
        <mask id="mask-2" maskContentUnits="userSpaceOnUse" maskUnits="objectBoundingBox" x="0" y="0" width="48" height="48" fill="white">
            <use xlink:href="#path-1"></use>
        </mask>
    </defs>
    <g id="Page-1" stroke="none" stroke-width="1" fill="none" fill-rule="evenodd">
        <g id="homepage-copy" transform="translate(-633.000000, -1853.000000)" stroke="#BBBBBB" stroke-width="4">
            <g id="Tab-Bar-Copy-3" transform="translate(0.000000, 1841.000000)">
                <g id="account" transform="translate(633.000000, 12.000000)">
                    <use id="Contacts-icon" mask="url(#mask-2)" xlink:href="#path-1"></use>
                </g>
            </g>
        </g>
    </g>
</svg>