<?xml version="1.0" encoding="UTF-8" standalone="no"?>
<svg width="48px" height="48px" viewBox="0 0 48 48" version="1.1" xmlns="http://www.w3.org/2000/svg" xmlns:xlink="http://www.w3.org/1999/xlink">
    <!-- Generator: Sketch 3.7.2 (28276) - http://www.bohemiancoding.com/sketch -->
    <title>Group 2</title>
    <desc>Created with Sketch.</desc>
    <defs>
        <path d="M24,48 C28.83736,48 33.3404599,46.5688625 37.1089936,44.1068936 C38.0395508,43.5888672 47.3188477,46.5566788 48,45.2573242 C48.3889245,44.5154185 44.8399175,35.9418416 45.2342692,35.1954238 C47.0001719,31.8529739 48,28.0432482 48,24 C48,10.745166 37.254834,0 24,0 C10.745166,0 0,10.745166 0,24 C0,37.254834 10.745166,48 24,48 Z" id="path-1"></path>
        <mask id="mask-2" maskContentUnits="userSpaceOnUse" maskUnits="objectBoundingBox" x="0" y="0" width="48.029836" height="48" fill="white">
            <use xlink:href="#path-1"></use>
        </mask>
    </defs>
    <g id="Page-1" stroke="none" stroke-width="1" fill="none" fill-rule="evenodd">
        <g id="homepage-copy" transform="translate(-445.000000, -1854.000000)">
            <g id="Tab-Bar-Copy-3" transform="translate(0.000000, 1841.000000)">
                <g id="Songs" transform="translate(445.000000, 13.000000)">
                    <g id="Group-2">
                        <use id="Oval-114" stroke="#BBBBBB" mask="url(#mask-2)" stroke-width="4" xlink:href="#path-1"></use>
                        <g id="Oval-254-+-Oval-254-Copy-+-Oval-254-Copy-2" transform="translate(13.000000, 22.000000)" fill="#D8D8D8">
                            <circle id="Oval-254" cx="2" cy="2" r="2"></circle>
                            <circle id="Oval-254-Copy" cx="12" cy="2" r="2"></circle>
                            <circle id="Oval-254-Copy-2" cx="22" cy="2" r="2"></circle>
                        </g>
                    </g>
                </g>
            </g>
        </g>
    </g>
</svg>