<?xml version="1.0" encoding="UTF-8" standalone="no"?>
<svg width="48px" height="48px" viewBox="0 0 48 48" version="1.1" xmlns="http://www.w3.org/2000/svg" xmlns:xlink="http://www.w3.org/1999/xlink">
    <!-- Generator: Sketch 3.7.2 (28276) - http://www.bohemiancoding.com/sketch -->
    <title>Oval 256 + ¥</title>
    <desc>Created with Sketch.</desc>
    <defs>
        <circle id="path-1" cx="24" cy="24" r="24"></circle>
        <mask id="mask-2" maskContentUnits="userSpaceOnUse" maskUnits="objectBoundingBox" x="0" y="0" width="48" height="48" fill="white">
            <use xlink:href="#path-1"></use>
        </mask>
    </defs>
    <g id="Page-1" stroke="none" stroke-width="1" fill="none" fill-rule="evenodd">
        <g id="homepage-copy" transform="translate(-256.000000, -1854.000000)">
            <g id="Tab-Bar-Copy-3" transform="translate(0.000000, 1841.000000)">
                <g id="news" transform="translate(256.000000, 13.000000)">
                    <g id="Oval-256-+-¥">
                        <use id="Oval-256" stroke="#BBBBBB" mask="url(#mask-2)" stroke-width="4" xlink:href="#path-1"></use>
                        <polygon id="¥" fill="#BBBBBB" points="14 13 22 23 15 23 15 25 23 25 23 29 15 29 15 31 23 31 23 38 25 38 25 31 34 31 34 29 25 29 25 25 34 25 34 23 26 23 35 13 32 13 24 22 17 13"></polygon>
                    </g>
                </g>
            </g>
        </g>
    </g>
</svg>